Coordinates
version=1
nRows=9
nColumns=24
inDegrees=yes

Units are S.I. units (second, meters, Newtons, ...)
Angles are in degrees.

endheader
time	pelvis_tilt	pelvis_list	pelvis_rotation	pelvis_tx	pelvis_ty	pelvis_tz	hip_flexion_r	hip_adduction_r	hip_rotation_r	knee_angle_r	ankle_angle_r	subtalar_angle_r	mtp_angle_r	hip_flexion_l	hip_adduction_l	hip_rotation_l	knee_angle_l	ankle_angle_l	subtalar_angle_l	mtp_angle_l	lumbar_extension	lumbar_bending	lumbar_rotation
      5.48000000	      9.01789045	     -0.99298236	     -1.90788664	      0.18677348	      0.87815054	      0.17124220	    -35.26270473	      1.23320809	     -6.65577459	    -10.65403710	     13.46273067	      7.36959216	      0.00000000	     18.34168970	      1.47732244	      0.63365461	    -12.32958161	      2.84184864	    -10.12246016	      0.00000000	    -26.93558585	      0.77115388	      1.04906459
      5.49000000	      8.94137891	     -0.44078530	     -1.62773164	      0.20533384	      0.87664921	      0.16881576	    -34.58498234	      0.38153158	     -7.66731830	    -13.39960372	     11.24862526	      7.79106956	      0.00000000	     19.42881556	      2.32671184	      0.09359945	    -15.81114608	      3.06708846	     -9.56829663	      0.00000000	    -26.56512892	      0.18188906	      1.01256005
      5.50000000	      8.97788604	      0.13981355	     -1.43784368	      0.22367680	      0.87564228	      0.16646781	    -33.72574130	     -0.59223164	     -8.46050008	    -16.53160828	      8.64852545	      7.89429121	      0.00000000	     20.26212564	      3.17161567	     -0.38873254	    -19.04444008	      3.67792420	     -9.33189463	      0.00000000	    -26.38007323	     -0.46997461	      1.05795540
      5.51000000	      9.10292644	      0.67072873	     -1.32504332	      0.24166748	      0.87507706	      0.16422050	    -32.64751913	     -1.58133778	     -8.91014314	    -20.03074628	      5.66644459	      7.57623795	      0.00000000	     20.88185698	      3.94407049	     -0.79571384	    -22.10195824	      4.80100309	     -9.25613009	      0.00000000	    -26.35856826	     -1.07798996	      1.17575358
      5.52000000	      9.33214343	      1.14984734	     -1.28133525	      0.25921826	      0.87494544	      0.16211413	    -31.35897601	     -2.55780837	     -9.03386829	    -23.88703585	      2.43733195	      6.89821743	      0.00000000	     21.22060668	      4.64541864	     -1.15536030	    -24.93215789	      6.41306922	     -9.17995737	      0.00000000	    -26.51691166	     -1.63651541	      1.31736701
      5.53000000	      9.62886528	      1.57469624	     -1.34068155	      0.27628271	      0.87520057	      0.16019764	    -29.82215022	     -3.53027373	     -8.88362200	    -28.07879613	     -0.81666642	      6.04672233	      0.00000000	     21.25003676	      5.26055489	     -1.51165456	    -27.43301029	      8.38678762	     -8.96804431	      0.00000000	    -26.79480966	     -2.14197301	      1.47273952
      5.54000000	      9.92902253	      1.96086069	     -1.49712455	      0.29284252	      0.87578690	      0.15849276	    -28.01359929	     -4.49445234	     -8.53003381	    -32.51368788	     -3.88218720	      5.15593649	      0.00000000	     20.98861221	      5.78732632	     -1.93849750	    -29.49692297	     10.53955800	     -8.54180742	      0.00000000	    -27.10792928	     -2.61230970	      1.64324187
      5.55000000	     10.15813728	      2.37662731	     -1.79485640	      0.30898491	      0.87668591	      0.15706302	    -25.92298023	     -5.49547081	     -7.91772968	    -37.05592777	     -6.52479244	      4.32283046	      0.00000000	     20.45339531	      6.28896048	     -2.45829717	    -30.98178200	     12.69709727	     -8.00499867	      0.00000000	    -27.32831760	     -3.14052002	      1.73342703
      5.56000000	     10.29432483	      2.81742816	     -2.22619751	      0.32474390	      0.87793391	      0.15591177	    -23.59382451	     -6.51374707	     -7.12682089	    -41.55554973	     -8.58026273	      3.66381273	      0.00000000	     19.68474951	      6.74569243	     -3.13882309	    -31.87700173	     14.70527066	     -7.33930685	      0.00000000	    -27.42270619	     -3.71912332	      1.79911211
